<svg version="1.1" id="Capa_1" xmlns="http://www.w3.org/2000/svg" x="0" y="0" viewBox="0 0 90 90" style="enable-background:new 0 0 90 90" xml:space="preserve"><style>.st4{fill:#c8d521}</style><circle cx="45" cy="45" r="43.56" style="fill-rule:evenodd;clip-rule:evenodd;fill:#fff"/><path d="M69.74 67.14h1.28l-.64-1.49-.64 1.5zm.39-4.2h.5l2.8 6.1h-1.56l-.35-.72h-2.28l-.34.73h-1.6l2.83-6.12zm-8.8 1.25V63h4.45l.08.19-2.59 4.66h2.43v1.2h-4.58l-.1-.2 2.66-4.65h-2.35zm-3.5-1.2h1.42v6.06l-.32.08-3.46-3.18v3.1h-1.42v-6.06l.33-.1 3.45 3.17V63zm-27.31 0 .33-.1 3.45 3.17V63h1.42v6.06l-.32.08-3.48-3.18v3.1H30.5v-6.06h.02zM27.02 65a1.7 1.7 0 0 0-.64-.64 1.72 1.72 0 0 0-2.3.64c-.17.29-.26.62-.26 1.01s.1.73.25 1.02c.16.27.37.48.64.62.25.16.53.23.84.23.28 0 .57-.07.83-.23.27-.14.48-.35.64-.62.16-.29.25-.62.25-1.01-.02-.41-.09-.75-.25-1.02zm-4.5 2.2a3.05 3.05 0 0 1-.22-1.2 3.2 3.2 0 0 1 .89-2.22c.28-.29.63-.52 1.03-.68a3.47 3.47 0 0 1 2.63 0 3.16 3.16 0 0 1 1.7 1.69c.16.37.23.78.23 1.2a3.05 3.05 0 0 1-.9 2.23l-.06.05a3.31 3.31 0 0 1-3.6.64 2.82 2.82 0 0 1-.98-.64l-.05-.05c-.3-.29-.5-.62-.66-1.01zm26.8-4.28h.5l2.81 6.12h-1.56l-.36-.73h-2.27l-.34.73h-1.6l2.83-6.12zm.88 4.21-.64-1.49-.64 1.5h1.28zM43.58 63H45v6.06h-1.42v-6.06zm-2.08 3.6h-1.88v2.46h-1.43v-6.06h3.82v1.2h-2.4v1.2h1.89v1.2zm-25.2-2.88c.3-.28.64-.48 1.03-.62s.8-.21 1.2-.23a3.22 3.22 0 0 1 1.9.53 4 4 0 0 1 .47.4l-.87 1.03a1.46 1.46 0 0 0-.28-.25 1.75 1.75 0 0 0-1.2-.43 1.66 1.66 0 0 0-1.51.9c-.17.3-.24.6-.24.93s.07.64.2.93c.12.28.31.51.6.69a1.8 1.8 0 0 0 1.61.16c.2-.07.36-.16.5-.27.14-.1.25-.2.32-.28l.87.92c-.03.06-.09.1-.12.14l-.34.3c-.21.17-.48.3-.8.42a3.66 3.66 0 0 1-2.77-.24c-.23-.14-.45-.3-.64-.48s-.38-.39-.52-.64a3.18 3.18 0 0 1-.43-1.65c0-.48.1-.9.29-1.3.16-.37.4-.69.73-.96z" style="fill-rule:evenodd;clip-rule:evenodd;fill:#684a98"/><path d="m57.05 71.36 1.31-.02v6.91l-.3.1-4.16-4.2v4.1H52.6v-6.91l.3-.09 4.14 4.2v-4.1h.02zm8.16 1.13h-2.97v1.71h2.45v1.12h-2.45v1.83h3.07v1.12h-4.4v-6.91h4.3v1.13zm-19.09 4.66v1.12h-4.16v-6.9h1.32v5.78h2.84zm2.28-5.8h1.33v6.92H48.4v-6.91zm-18.88 2.2a2.22 2.22 0 0 0-.83-.84 2.12 2.12 0 0 0-2.2 0 2.44 2.44 0 0 0-1.14 2.11c.01.48.12.9.33 1.28a2.26 2.26 0 0 0 1.92 1.12c.4 0 .76-.1 1.08-.3a2.29 2.29 0 0 0 1.16-2.1c0-.5-.1-.92-.32-1.28zm-.04-1.84a3.63 3.63 0 0 1 1.78 3.11 3.54 3.54 0 0 1-1.78 3.11 3.93 3.93 0 0 1-3.8 0 3.53 3.53 0 0 1-1.74-3.11c0-.66.16-1.26.46-1.81.32-.53.75-.96 1.28-1.3.55-.32 1.2-.48 1.9-.48.73 0 1.35.16 1.9.48zm4.18-.37.3-.09 4.14 4.2v-4.11l1.32-.02v6.92l-.3.08-4.16-4.19v4.1h-1.32v-6.9h.02z" style="fill-rule:evenodd;clip-rule:evenodd;fill:#859eaf"/><path d="M46 56.36h-.54a21.48 21.48 0 0 1-15.12-6.44 21.03 21.03 0 0 1-6.45-15.48c0-6 2.16-11.21 6.45-15.48a21.51 21.51 0 0 1 15.1-6.4h.04a1.8 1.8 0 0 1 .04 3.6c-4.98.1-9.12 1.84-12.66 5.34a17.42 17.42 0 0 0-5.38 12.93c0 5.1 1.76 9.33 5.38 12.92a17.7 17.7 0 0 0 12.64 5.38h.48c5.13 0 9.4-1.76 13.02-5.38a17.28 17.28 0 0 0 5.44-12.92v-.22c0-1 .8-1.8 1.8-1.8s1.8.8 1.8 1.8v.22a21 21 0 0 1-6.51 15.48 21.18 21.18 0 0 1-15.54 6.45z" style="fill:#684a98"/><path class="st4" d="M45 90c-12.37 0-23.07-4.42-31.81-13.19C4.44 68.07 0 57.37 0 45s4.42-23.07 13.19-31.81C21.93 4.44 32.63 0 45 0s23.07 4.42 31.81 13.19C85.56 21.93 90 32.63 90 45s-4.42 23.07-13.19 31.81A43.51 43.51 0 0 1 45 90zm0-87.12A40.83 40.83 0 0 0 15.21 15.2 40.73 40.73 0 0 0 2.88 45c0 11.57 4.16 21.6 12.33 29.79A40.73 40.73 0 0 0 45 87.12c11.57 0 21.6-4.16 29.79-12.33A40.73 40.73 0 0 0 87.12 45c0-11.57-4.16-21.6-12.33-29.79S56.59 2.88 45 2.88z"/><path class="st4" d="M45.27 50.23h-.1c-4-.2-7.47-1.75-10.34-4.63-3.05-3.05-4.62-6.8-4.62-11.14s1.55-8.09 4.62-11.16a15.22 15.22 0 0 1 10.35-4.59l.83-.01c4.34 0 8.07 1.54 11.15 4.62 3 3 4.56 6.68 4.62 10.91A1.8 1.8 0 0 1 60 36.06h-.04a1.8 1.8 0 0 1-1.8-1.78 11.72 11.72 0 0 0-3.56-8.42A11.6 11.6 0 0 0 46 22.3c-.22 0-.43 0-.63.02h-.03c-3.11.15-5.73 1.3-7.98 3.54-2.4 2.4-3.56 5.22-3.56 8.62s1.17 6.2 3.56 8.6a11.57 11.57 0 0 0 7.98 3.57c1 .06 1.76.9 1.7 1.89a1.78 1.78 0 0 1-1.77 1.69z"/><path d="M45.98 43.93c-2.6 0-4.86-.94-6.7-2.77a9.18 9.18 0 0 1-2.78-6.7c0-2.6.93-4.85 2.78-6.7a9.17 9.17 0 0 1 6.7-2.77c2.6 0 4.85.92 6.7 2.77a9.17 9.17 0 0 1 2.77 6.7c0 2.61-.94 4.85-2.79 6.7a9.07 9.07 0 0 1-6.68 2.77zm0-15.33c-1.64 0-3 .56-4.16 1.72-1.16 1.16-1.7 2.52-1.7 4.16s.56 2.99 1.72 4.14 2.52 1.72 4.15 1.72a5.6 5.6 0 0 0 4.15-1.72c1.17-1.16 1.72-2.52 1.72-4.16s-.57-3-1.72-4.16a5.62 5.62 0 0 0-4.16-1.7z" style="fill:#859eaf"/></svg>