<svg xmlns="http://www.w3.org/2000/svg" viewBox="0 0 25 20" style="enable-background:new 0 0 25 20.001" xml:space="preserve"><path d="M13 0C8.72 0 4.5 2.73 4.5 7.16c0 2.83 1.65 4.43 2.65 4.43.41 0 .65-1.1.65-1.42 0-.37-1-1.16-1-2.72 0-3.22 2.56-5.5 5.86-5.5 2.84 0 4.94 1.55 4.94 4.4 0 2.13-.89 6.12-3.76 6.12-1.04 0-1.93-.72-1.93-1.76 0-1.51 1.1-2.98 1.1-4.54C13.01 3.52 9.1 4 9.1 7.2c0 .68.09 1.42.4 2.03-.58 2.39-1.75 5.93-1.75 8.39 0 .76.1 1.5.18 2.26.15.15.08.14.3.06 2.1-2.77 2.02-3.3 2.97-6.93.51.94 1.84 1.44 2.89 1.44 4.43 0 6.41-4.15 6.41-7.89C20.5 2.6 16.93 0 13 0z" style="fill:#222222"/></svg>