<svg xmlns="http://www.w3.org/2000/svg" viewBox="0 0 24 24" style="enable-background:new 0 0 24 24" xml:space="preserve"><path d="M1.63 24c.44 0 .85-.17 1.16-.48l8.84-8.84.37-.36.37.37 8.84 8.84a1.65 1.65 0 0 0 2.41-.1c.55-.64.47-1.66-.18-2.31l-8.75-8.74-.37-.38.37-.37 8.76-8.75c.61-.61.72-1.55.26-2.19-.32-.44-.8-.69-1.34-.69-.44 0-.85.17-1.16.48l-8.84 8.84-.37.37-.37-.37L2.87.56A1.88 1.88 0 0 0 1.58.02 1.62 1.62 0 0 0 0 1.5c-.04.48.13.95.47 1.29l8.84 8.84.37.37-.37.37-8.75 8.74c-.66.65-.74 1.67-.19 2.32.33.36.78.57 1.26.57z" style="fill:#212121"/></svg>