<svg xmlns="http://www.w3.org/2000/svg" viewBox="0 0 28.29 22" style="enable-background:new 0 0 28.286 22" xml:space="preserve"><path d="M28.29 9.04v.78c0 .65-.53 1.18-1.18 1.18h-.4l-1.28 8.98A2.36 2.36 0 0 1 23.1 22H5.19a2.36 2.36 0 0 1-2.34-2.02L1.57 11h-.4C.54 11 0 10.47 0 9.82v-.78c0-.65.53-1.18 1.18-1.18h3.3L9.74.65a1.57 1.57 0 0 1 2.54 1.84l-3.9 5.37h11.54l-3.9-5.36A1.57 1.57 0 0 1 18.57.65l5.24 7.2h3.3c.66 0 1.19.54 1.19 1.19zm-12.97 8.64v-5.5a1.18 1.18 0 0 0-2.36 0v5.5a1.18 1.18 0 0 0 2.36 0zm5.5 0v-5.5a1.18 1.18 0 0 0-2.36 0v5.5a1.18 1.18 0 0 0 2.36 0zm-11 0v-5.5a1.18 1.18 0 1 0-2.36 0v5.5a1.18 1.18 0 0 0 2.36 0z" style="fill:#222222"/></svg>