<svg xmlns="http://www.w3.org/2000/svg" viewBox="0 0 25 20.305" style="enable-background:new 0 0 25 20.305" xml:space="preserve"><path d="M12.502 5.025c-2.838 0-5.128 2.289-5.128 5.128s2.289 5.128 5.128 5.128 5.128-2.289 5.128-5.128-2.289-5.128-5.128-5.128zm0 8.461c-1.834 0-3.334-1.495-3.334-3.334s1.495-3.334 3.334-3.334 3.334 1.495 3.334 3.334-1.5 3.334-3.334 3.334zm6.534-8.671c0 .665-.536 1.196-1.196 1.196a1.197 1.197 0 1 1 1.196-1.196zm3.396 1.214c-.076-1.602-.442-3.021-1.616-4.191C19.647.669 18.228.303 16.625.222c-1.651-.094-6.6-.094-8.252 0-1.597.076-3.016.442-4.189 1.612s-1.536 2.588-1.616 4.19c-.094 1.651-.094 6.6 0 8.252.076 1.602.442 3.021 1.616 4.191s2.588 1.535 4.191 1.616c1.651.094 6.6.094 8.252 0 1.602-.076 3.021-.442 4.191-1.616 1.169-1.169 1.535-2.588 1.616-4.191.092-1.651.092-6.596-.002-8.247zm-2.133 10.019a3.372 3.372 0 0 1-1.901 1.901c-1.317.522-4.44.402-5.895.402s-4.583.116-5.895-.402a3.372 3.372 0 0 1-1.901-1.901c-.522-1.317-.402-4.44-.402-5.895s-.117-4.584.401-5.896a3.372 3.372 0 0 1 1.901-1.901c1.317-.522 4.44-.402 5.895-.402s4.583-.116 5.895.402a3.372 3.372 0 0 1 1.901 1.901c.522 1.317.402 4.44.402 5.895s.121 4.584-.401 5.896z" style="fill:#222222"/></svg>