<svg xmlns="http://www.w3.org/2000/svg" viewBox="0 0 25 20.3" style="enable-background:new 0 0 25 20.305" xml:space="preserve"><path d="M22.43 5.06c.02.22.02.44.02.67 0 6.77-5.16 14.57-14.58 14.57-2.9 0-5.6-.84-7.87-2.3a10.5 10.5 0 0 0 7.6-2.12 5.13 5.13 0 0 1-4.8-3.56 5.41 5.41 0 0 0 2.32-.1 5.12 5.12 0 0 1-4.1-5.02v-.06c.68.38 1.47.62 2.31.65A5.12 5.12 0 0 1 1.74.94 14.57 14.57 0 0 0 12.31 6.3a5.12 5.12 0 0 1 8.74-4.68C22.21 1.4 23.32.97 24.3.38a5.11 5.11 0 0 1-2.25 2.82c1.03-.1 2.03-.4 2.95-.79a11 11 0 0 1-2.57 2.65z" style="fill:#222222"/></svg>